<?xml version="1.0" encoding="UTF-8"?>
<svg id="Layer_1" xmlns="http://www.w3.org/2000/svg" version="1.1" viewBox="0 0 483.1 169.7">
  <!-- Generator: Adobe Illustrator 29.0.1, SVG Export Plug-In . SVG Version: 2.1.0 Build 192)  -->
  <defs>
    <style>
      .st0, .st1, .st2, .st3 {
        fill: #fff;
      }

      .st0, .st4 {
        fill-rule: evenodd;
      }

      .st1 {
        letter-spacing: 0em;
      }

      .st1, .st2 {
        font-family: PlantagenetCherokee, 'Plantagenet Cherokee';
        font-size: 99.7px;
      }

      .st2 {
        letter-spacing: 0em;
      }

      .st4 {
        fill: #58595b;
      }

      .st4, .st5 {
        display: none;
      }

      .st6 {
        letter-spacing: .7em;
      }

      .st7 {
        letter-spacing: .7em;
      }

      .st8 {
        letter-spacing: .7em;
      }

      .st5 {
        fill: #898989;
      }

      .st9 {
        letter-spacing: -.2em;
      }

      .st3 {
        font-family: TrebuchetMS, 'Trebuchet MS';
        font-size: 32.5px;
      }
    </style>
  </defs>
  <rect class="st5" width="483.1" height="169.7"/>
  <path class="st4" d="M256.7,106.3c-27.3,2.9-44.8,10.2-81.5,27.6-36.6,17.3-67.9,15.8-67.9,15.8,50.6,24.7,89.6-20.9,127.8-34.3,28.5-10,48.7-4.6,48.7-4.6,0,0-12.9-6-27.1-4.5Z"/>
  <path class="st4" d="M270.2,116.7c-12.1,1.2-23.9,8.1-42.9,19.6-19,11.5-36.2,12.5-36.2,12.5,29,10.6,47.7-16.4,67.7-25.9,15-7.1,33.2.2,33.2.2,0,0-9.8-7.6-21.9-6.4Z"/>
  <g>
    <path class="st0" d="M395.5,71.4c96-12.1,75.1,37.8,75.1,37.8,39.6-57.5-27.1-69.7-27.1-69.7-3.7,16.7-19.7,27.3-48,31.9ZM359,33.4c29.7-1.9,50.5,17.8,58.2,13.3,7.7-4.5,6.8-12.7-2.1-14.3-30.5-5.5-56.1.9-56.1.9Z"/>
    <path class="st0" d="M323.2,3.7c-24.2,4.2-88.6,25.8-170.5,67.7C70.8,113.2,0,121.6,0,121.6c117.1,16.4,186.1-60.6,294.1-99.6,108-39,139.5,8.6,139.5,8.6,0,0-15-43.3-110.4-26.9Z"/>
    <text class="st3" transform="translate(108.5 162.5) scale(.9 .8)"><tspan class="st7" x="0" y="0">PUB</tspan><tspan class="st8" x="128.4" y="0">L</tspan><tspan class="st6" x="168.5" y="0">I</tspan><tspan class="st8" x="201.2" y="0">S</tspan><tspan class="st6" x="240.4" y="0">HIN</tspan><tspan class="st9" x="362.3" y="0">G</tspan></text>
    <text class="st2" transform="translate(25.2 131.8)"><tspan x="0" y="0">B</tspan></text>
    <text class="st1" transform="translate(86 131.8) scale(.7)"><tspan x="0" y="0">LUEWATER</tspan></text>
  </g>
  <text/>
</svg>